<svg width="28" height="28" viewBox="0 0 28 28" fill="none" xmlns="http://www.w3.org/2000/svg">
<g id="Empty star 1">
<g id="Mask group">
<mask id="mask0_64_969" style="mask-type:alpha" maskUnits="userSpaceOnUse" x="3" y="3" width="22" height="20">
<g id="Group">
<path id="Vector" d="M12.5734 4.39047C13.0224 3.00851 14.9776 3.00851 15.4266 4.39048L16.8064 8.63719C17.0072 9.25522 17.5832 9.67366 18.233 9.67366H22.6983C24.1514 9.67366 24.7555 11.5331 23.5799 12.3872L19.9675 15.0118C19.4417 15.3938 19.2218 16.0708 19.4226 16.6889L20.8024 20.9356C21.2514 22.3175 19.6697 23.4667 18.4941 22.6126L14.8817 19.988C14.3559 19.606 13.6441 19.606 13.1183 19.988L9.50582 22.6126C8.33025 23.4667 6.74853 22.3175 7.19756 20.9356L8.5774 16.6888C8.77821 16.0708 8.55823 15.3938 8.03249 15.0118L4.42002 12.3872C3.24445 11.5331 3.84862 9.67366 5.3017 9.67366H9.76696C10.4168 9.67366 10.9928 9.25522 11.1936 8.63719L12.5734 4.39047Z" fill="#D9D9D9"/>
</g>
</mask>
<g mask="url(#mask0_64_969)">
<g id="Group_2">
<path id="Vector_2" d="M15.1888 4.46773L16.5687 8.71444C16.8029 9.43548 17.4749 9.92366 18.233 9.92366H22.6983C23.9092 9.92366 24.4126 11.4732 23.433 12.1849L19.8205 14.8095C19.2072 15.2552 18.9505 16.0451 19.1848 16.7661L20.5646 21.0128C20.9388 22.1645 19.6207 23.1221 18.6411 22.4104L15.0286 19.7857C14.4153 19.3401 13.5847 19.3401 12.9714 19.7857L9.35888 22.4104C8.37924 23.1221 7.06114 22.1645 7.43534 21.0128L8.81518 16.7661C9.04946 16.0451 8.7928 15.2552 8.17945 14.8095L4.56698 12.1849C3.58734 11.4732 4.09081 9.92366 5.30171 9.92366H9.76697C10.5251 9.92366 11.1971 9.43548 11.4313 8.71444L12.8112 4.46773C13.1854 3.31609 14.8146 3.31609 15.1888 4.46773Z" stroke="black" stroke-width="0.5"/>
</g>
</g>
</g>
</g>
</svg>
