<svg width="22" height="20" viewBox="0 0 22 20" fill="none" xmlns="http://www.w3.org/2000/svg">
<g id="Star 6" clip-path="url(#clip0_60_450)">
<path id="Vector" d="M9.57339 1.39047C10.0224 0.00851166 11.9776 0.00851309 12.4266 1.39048L13.8064 5.63719C14.0072 6.25522 14.5832 6.67366 15.233 6.67366H19.6983C21.1514 6.67366 21.7555 8.53308 20.5799 9.38719L16.9675 12.0118C16.4417 12.3938 16.2218 13.0708 16.4226 13.6889L17.8024 17.9356C18.2514 19.3175 16.6697 20.4667 15.4941 19.6126L11.8817 16.988C11.3559 16.606 10.6441 16.606 10.1183 16.988L6.50582 19.6126C5.33025 20.4667 3.74853 19.3175 4.19756 17.9356L5.5774 13.6888C5.77821 13.0708 5.55823 12.3938 5.03249 12.0118L1.42002 9.38719C0.244456 8.53308 0.84862 6.67366 2.3017 6.67366H6.76696C7.4168 6.67366 7.99273 6.25522 8.19354 5.63719L9.57339 1.39047Z" fill="#A5CEFF"/>
</g>
<defs>
<clipPath id="clip0_60_450">
<rect width="22" height="20" fill="white"/>
</clipPath>
</defs>
</svg>
